static_grf.mot
version=1
nRows=25
nColumns 19
inDegrees=yes
endheader
time	1_ground_force_vx	1_ground_force_vy	1_ground_force_vz	1_ground_force_px	1_ground_force_py	1_ground_force_pz	1_ground_torque_x	1_ground_torque_y	1_ground_torque_z	2_ground_force_vx	2_ground_force_vy	2_ground_force_vz	2_ground_force_px	2_ground_force_py	2_ground_force_pz	2_ground_torque_x	2_ground_torque_y	2_ground_torque_z
            0.005000	           -1.421911	          288.313398	          -14.810303	           -0.251665	            0.006261	           -0.414871	           -0.006003	            1.217146	           -0.062523	           -0.095821	          262.170842	           17.594770	           -0.258890	            0.005487	           -0.680361	            0.000251	           -0.686473	           -0.046070
            0.005500	           -1.468485	          287.954234	          -15.132726	           -0.251629	            0.006261	           -0.414989	           -0.006101	            1.196420	           -0.062875	            0.375254	          261.436641	           17.404230	           -0.259457	            0.005483	           -0.679863	           -0.001068	           -0.744372	           -0.049554
            0.006000	           -1.468485	          287.954234	          -15.132726	           -0.251628	            0.006260	           -0.414728	           -0.006103	            1.196777	           -0.062894	            0.233313	          261.804917	           17.264820	           -0.259346	            0.005485	           -0.680293	           -0.000672	           -0.754420	           -0.049751
            0.006500	           -1.239420	          289.396207	          -15.081255	           -0.251620	            0.006258	           -0.414182	           -0.005439	            1.270055	           -0.066186	            0.230737	          262.540810	           17.455160	           -0.259265	            0.005485	           -0.680223	           -0.000675	           -0.767705	           -0.051041
            0.007000	           -1.835184	          289.575934	          -14.987292	           -0.251656	            0.006257	           -0.413946	           -0.007268	            1.146774	           -0.059352	           -0.049115	          262.172183	           17.266253	           -0.259037	            0.005486	           -0.680290	            0.000129	           -0.687366	           -0.045269
            0.007500	           -1.147195	          288.314041	          -14.948553	           -0.251344	            0.006260	           -0.414759	           -0.005192	            1.304795	           -0.067651	            0.184490	          262.357002	           17.313739	           -0.258991	            0.005485	           -0.679900	           -0.000562	           -0.799835	           -0.052784
            0.008000	           -1.652184	          288.495358	          -15.221664	           -0.251625	            0.006259	           -0.414509	           -0.006697	            1.169451	           -0.061703	            0.232752	          261.988220	           17.500117	           -0.259168	            0.005485	           -0.680115	           -0.000715	           -0.805296	           -0.053792
            0.008500	           -1.560483	          289.036007	          -15.173717	           -0.251180	            0.006256	           -0.413750	           -0.006505	            1.204811	           -0.063250	            0.092140	          261.988215	           17.359393	           -0.259270	            0.005485	           -0.680183	           -0.000242	           -0.687026	           -0.045522
            0.009000	           -1.468599	          287.954431	          -15.178582	           -0.251564	            0.006260	           -0.414800	           -0.006055	            1.187216	           -0.062580	           -0.002868	          262.355991	           17.407675	           -0.259439	            0.005485	           -0.680326	            0.000008	           -0.723810	           -0.048026
            0.009500	           -1.605658	          288.494187	          -14.946642	           -0.251685	            0.006259	           -0.414403	           -0.006579	            1.182131	           -0.061245	            0.187875	          261.435797	           17.451238	           -0.259530	            0.005482	           -0.679645	           -0.000530	           -0.737189	           -0.049208
            0.010000	           -1.468341	          289.035238	          -14.990521	           -0.251105	            0.006258	           -0.414176	           -0.006122	            1.205045	           -0.062498	            0.088776	          262.909314	           17.268822	           -0.259308	            0.005486	           -0.680507	           -0.000250	           -0.741472	           -0.048703
            0.010500	           -1.605738	          288.314149	          -14.993271	           -0.251369	            0.006260	           -0.414836	           -0.006608	            1.186425	           -0.061698	            0.326349	          261.989396	           17.265437	           -0.259104	            0.005485	           -0.679901	           -0.000977	           -0.784238	           -0.051682
            0.011000	           -1.468584	          288.495000	          -15.130407	           -0.251457	            0.006260	           -0.414625	           -0.006267	            1.231106	           -0.064567	            0.137682	          262.356498	           17.407615	           -0.259226	            0.005486	           -0.680328	           -0.000374	           -0.713496	           -0.047341
            0.011500	           -1.560515	          289.216242	          -15.172944	           -0.251424	            0.006258	           -0.414170	           -0.006669	            1.235920	           -0.064839	            0.184449	          262.357337	           17.219883	           -0.259073	            0.005486	           -0.680114	           -0.000535	           -0.760621	           -0.049924
            0.012000	           -1.285278	          288.855567	          -15.129317	           -0.251398	            0.006259	           -0.414489	           -0.005687	            1.278079	           -0.066942	            0.043317	          262.540301	           17.408312	           -0.259269	            0.005485	           -0.680149	           -0.000125	           -0.756714	           -0.050176
            0.012500	           -1.285458	          289.216295	          -15.173627	           -0.251251	            0.006258	           -0.414232	           -0.005552	            1.249057	           -0.065531	            0.186484	          261.804580	           17.311768	           -0.259118	            0.005485	           -0.679863	           -0.000571	           -0.801965	           -0.053030
            0.013000	           -1.514574	          288.675484	          -15.175376	           -0.251518	            0.006259	           -0.414402	           -0.006432	            1.225934	           -0.064446	            0.186464	          261.804747	           17.264840	           -0.259128	            0.005485	           -0.679862	           -0.000543	           -0.763062	           -0.050321
            0.013500	           -1.652103	          288.675458	          -15.175035	           -0.251618	            0.006259	           -0.414533	           -0.006581	            1.149978	           -0.060452	            0.135749	          262.908479	           17.550371	           -0.259009	            0.005487	           -0.680437	           -0.000403	           -0.779725	           -0.052050
            0.014000	           -1.560434	          289.396342	          -15.126315	           -0.251484	            0.006259	           -0.414388	           -0.006514	            1.208021	           -0.063141	            0.045290	          261.988046	           17.359413	           -0.259182	            0.005485	           -0.680040	           -0.000130	           -0.754138	           -0.049969
            0.014500	           -1.285652	          289.036453	          -15.266111	           -0.251577	            0.006258	           -0.414344	           -0.005751	            1.292926	           -0.068289	            0.001702	          261.067614	           17.215363	           -0.259220	            0.005483	           -0.679641	           -0.000005	           -0.696881	           -0.045954
            0.015000	           -1.559913	          289.035024	          -14.944437	           -0.251577	            0.006257	           -0.414104	           -0.006412	            1.188151	           -0.061433	            0.371225	          262.541819	           17.314316	           -0.259059	            0.005486	           -0.680081	           -0.001039	           -0.735024	           -0.048474
            0.015500	           -1.743804	          288.134809	          -15.222983	           -0.251468	            0.006260	           -0.414776	           -0.007027	            1.161028	           -0.061340	           -0.003533	          262.540131	           17.408332	           -0.259134	            0.005485	           -0.680005	            0.000010	           -0.719090	           -0.047681
            0.016000	           -1.331462	          288.856148	          -15.266771	           -0.251532	            0.006260	           -0.414704	           -0.005920	            1.284423	           -0.067885	           -0.000333	          261.620432	           17.123478	           -0.259084	            0.005484	           -0.679752	            0.000001	           -0.729857	           -0.047770
            0.016500	           -1.514265	          288.855130	          -15.037036	           -0.251319	            0.006258	           -0.414217	           -0.006253	            1.192748	           -0.062091	            0.326390	          261.989061	           17.359293	           -0.259103	            0.005485	           -0.680044	           -0.000980	           -0.786549	           -0.052116
            0.017000	           -1.743839	          289.576541	          -15.125087	           -0.251373	            0.006257	           -0.414032	           -0.007147	            1.186824	           -0.061990	            0.043338	          262.540133	           17.455240	           -0.258901	            0.005488	           -0.680507	           -0.000130	           -0.789367	           -0.052482
